<svg width="18" height="14" viewBox="0 0 18 14" fill="none" xmlns="http://www.w3.org/2000/svg">
<path fill-rule="evenodd" clip-rule="evenodd" d="M9.00008 1.62357C7.938 1.62357 7.07701 2.49012 7.07701 3.55906C7.07701 4.628 7.938 5.49454 9.00008 5.49454C10.0622 5.49454 10.9232 4.628 10.9232 3.55906C10.9232 2.49012 10.0622 1.62357 9.00008 1.62357ZM5.79495 3.55906C5.79495 1.77749 7.22994 0.333252 9.00008 0.333252C10.7702 0.333252 12.2052 1.77749 12.2052 3.55906C12.2052 5.34062 10.7702 6.78486 9.00008 6.78486C7.22994 6.78486 5.79495 5.34062 5.79495 3.55906Z" fill="#18191F" fill-opacity="0.5"/>
<path fill-rule="evenodd" clip-rule="evenodd" d="M7.73548 9.36551C6.42774 9.36551 5.3676 10.4325 5.3676 11.7487C5.3676 11.7743 5.36976 11.795 5.37263 11.8105C5.37301 11.8126 5.3734 11.8145 5.37378 11.8163C5.71614 12.007 6.68496 12.3763 9.00008 12.3763C11.3152 12.3763 12.284 12.007 12.6264 11.8163C12.6268 11.8145 12.6272 11.8126 12.6275 11.8105C12.6304 11.795 12.6326 11.7743 12.6326 11.7487C12.6326 10.4325 11.5724 9.36551 10.2647 9.36551H7.73548ZM4.08555 11.7487C4.08555 9.71985 5.71968 8.07519 7.73548 8.07519H10.2647C12.2805 8.07519 13.9146 9.71985 13.9146 11.7487C13.9146 12.1107 13.7927 12.6236 13.3084 12.9101C12.72 13.2582 11.5055 13.6666 9.00008 13.6666C6.49465 13.6666 5.28021 13.2582 4.69173 12.9101C4.20743 12.6236 4.08555 12.1107 4.08555 11.7487Z" fill="#18191F" fill-opacity="0.5"/>
<path fill-rule="evenodd" clip-rule="evenodd" d="M12.8684 1.6703C12.9608 1.32633 13.3127 1.12285 13.6545 1.21581C14.8243 1.53402 15.624 2.69024 15.624 3.98917C15.624 5.36198 14.6879 6.61852 13.35 6.78026C12.9985 6.82275 12.6794 6.57042 12.6371 6.21665C12.5949 5.86288 12.8456 5.54164 13.1971 5.49915C13.7823 5.4284 14.342 4.82502 14.342 3.98917C14.342 3.19568 13.8596 2.60822 13.32 2.46144C12.9782 2.36848 12.7761 2.01427 12.8684 1.6703Z" fill="#18191F" fill-opacity="0.5"/>
<path fill-rule="evenodd" clip-rule="evenodd" d="M14.3538 8.59685C14.4216 8.24713 14.7582 8.01891 15.1057 8.08712C16.3996 8.34109 17.3334 9.48195 17.3334 10.8087V11.1575C17.3334 11.4886 17.2348 11.989 16.7754 12.2845C16.4882 12.4693 16.053 12.6596 15.395 12.7936C15.048 12.8642 14.7098 12.6384 14.6396 12.2891C14.5694 11.9399 14.7938 11.5995 15.1408 11.5289C15.6288 11.4295 15.9045 11.3046 16.0466 11.2209L16.0468 11.2198C16.0494 11.2042 16.0514 11.1834 16.0514 11.1575V10.8087C16.0514 10.0993 15.5521 9.48937 14.8603 9.35358C14.5128 9.28537 14.286 8.94658 14.3538 8.59685Z" fill="#18191F" fill-opacity="0.5"/>
<path fill-rule="evenodd" clip-rule="evenodd" d="M5.13173 6.30803C5.03936 6.652 4.68742 6.85548 4.34565 6.76252C3.17585 6.44431 2.37615 5.28809 2.37615 3.98917C2.37615 2.61636 3.31225 1.35981 4.65013 1.19807C5.00163 1.15558 5.32081 1.40791 5.36303 1.76168C5.40525 2.11545 5.15453 2.43669 4.80303 2.47918C4.21783 2.54993 3.6582 3.15332 3.6582 3.98917C3.6582 4.78265 4.14056 5.37011 4.68015 5.51689C5.02192 5.60985 5.22409 5.96406 5.13173 6.30803Z" fill="#18191F" fill-opacity="0.5"/>
<path fill-rule="evenodd" clip-rule="evenodd" d="M3.64635 8.59685C3.57858 8.24713 3.24195 8.01891 2.89447 8.08712C1.60058 8.34109 0.666748 9.48195 0.666748 10.8087V11.1575C0.666748 11.4886 0.7654 11.989 1.22481 12.2845C1.51198 12.4693 1.94719 12.6596 2.60516 12.7936C2.95216 12.8642 3.29037 12.6384 3.36057 12.2891C3.43077 11.9399 3.20639 11.5995 2.85939 11.5289C2.37138 11.4295 2.09568 11.3046 1.95361 11.2209L1.95341 11.2198C1.95077 11.2042 1.9488 11.1834 1.9488 11.1575V10.8087C1.9488 10.0993 2.44809 9.48937 3.13988 9.35358C3.48736 9.28537 3.71412 8.94658 3.64635 8.59685Z" fill="#18191F" fill-opacity="0.5"/>
</svg>
