<svg width="18" height="18" viewBox="0 0 18 18" fill="none" xmlns="http://www.w3.org/2000/svg">
<path fill-rule="evenodd" clip-rule="evenodd" d="M9.00241 7.02631C7.8699 7.02631 6.95182 7.90995 6.95182 8.99999C6.95182 10.09 7.8699 10.9737 9.00241 10.9737C10.1349 10.9737 11.053 10.09 11.053 8.99999C11.053 7.90995 10.1349 7.02631 9.00241 7.02631ZM5.58476 8.99999C5.58476 7.18326 7.1149 5.71052 9.00241 5.71052C10.8899 5.71052 12.4201 7.18326 12.4201 8.99999C12.4201 10.8167 10.8899 12.2895 9.00241 12.2895C7.1149 12.2895 5.58476 10.8167 5.58476 8.99999Z" fill="#18191F" fill-opacity="0.5"/>
<path fill-rule="evenodd" clip-rule="evenodd" d="M16.0012 8.99999L16.1977 9.10972C17.2795 9.71363 17.6534 11.0439 17.0354 12.0904L15.7812 14.2142C15.1556 15.2737 13.7525 15.639 12.6573 15.0276L12.4885 14.9334V15.1403C12.4885 16.3515 11.4684 17.3333 10.2101 17.3333H7.7229C6.46455 17.3333 5.44447 16.3515 5.44447 15.1403V14.9614L5.36342 15.0077C4.26687 15.6348 2.8491 15.2734 2.21881 14.2061L0.964719 12.0825C0.351355 11.0438 0.71462 9.72373 1.78173 9.11349L1.9802 8.99999L1.78173 8.88649C0.71462 8.27625 0.351354 6.95615 0.964719 5.91751L2.21881 3.79389C2.8491 2.72659 4.26686 2.36515 5.36342 2.99224L5.44447 3.03858V2.85964C5.44447 1.64849 6.46456 0.666656 7.7229 0.666656H10.2101C11.4684 0.666656 12.4885 1.64849 12.4885 2.85964V3.06662L12.6573 2.97242C13.7525 2.36101 15.1556 2.72631 15.7812 3.78575L17.0354 5.9096C17.6534 6.95605 17.2795 8.28635 16.1977 8.89026L16.0012 8.99999ZM14.6357 9.75879C14.0302 9.42077 14.0302 8.57921 14.6357 8.24119L15.5119 7.75206C15.9446 7.5105 16.0941 6.97838 15.8469 6.55979L14.5927 4.43595C14.3425 4.01217 13.7812 3.86605 13.3431 4.11062L12.4901 4.58684C11.8825 4.92602 11.1215 4.50408 11.1215 3.82804V2.85964C11.1215 2.37518 10.7134 1.98245 10.2101 1.98245H7.7229C7.21956 1.98245 6.81152 2.37518 6.81152 2.85964V3.80935C6.81152 4.48949 6.04214 4.91089 5.43463 4.56347L4.66514 4.12343C4.22652 3.87259 3.65941 4.01717 3.4073 4.44409L2.15321 6.56771C1.90786 6.98317 2.05317 7.5112 2.48001 7.7553L3.33784 8.24586C3.93231 8.58582 3.93231 9.41416 3.33784 9.75412L2.48001 10.2447C2.05317 10.4888 1.90786 11.0168 2.15321 11.4323L3.4073 13.5559C3.65941 13.9828 4.22652 14.1274 4.66514 13.8766L5.43463 13.4365C6.04214 13.0891 6.81152 13.5105 6.81152 14.1906V15.1403C6.81152 15.6248 7.21956 16.0175 7.7229 16.0175H10.2101C10.7134 16.0175 11.1215 15.6248 11.1215 15.1403V14.1719C11.1215 13.4959 11.8825 13.074 12.4901 13.4131L13.3431 13.8894C13.7812 14.1339 14.3425 13.9878 14.5927 13.564L15.8469 11.4402C16.0941 11.0216 15.9446 10.4895 15.5119 10.2479L14.6357 9.75879Z" fill="#18191F" fill-opacity="0.5"/>
</svg>
