<svg width="18" height="18" viewBox="0 0 18 18" fill="none" xmlns="http://www.w3.org/2000/svg">
<path fill-rule="evenodd" clip-rule="evenodd" d="M6.80228 1.94871C5.33559 1.94871 4.1466 3.1377 4.1466 4.60439C4.1466 6.07108 5.33559 7.26006 6.80228 7.26006C8.26897 7.26006 9.45796 6.07108 9.45796 4.60439C9.45796 3.1377 8.26897 1.94871 6.80228 1.94871ZM2.86455 4.60439C2.86455 2.42964 4.62753 0.666656 6.80228 0.666656C8.97703 0.666656 10.74 2.42964 10.74 4.60439C10.74 6.77913 8.97703 8.54212 6.80228 8.54212C4.62753 8.54212 2.86455 6.77913 2.86455 4.60439Z" fill="#969BAB"/>
<path fill-rule="evenodd" clip-rule="evenodd" d="M5.17635 11.8388C3.39382 11.8388 1.9488 13.2838 1.9488 15.0664C1.9488 15.1551 1.9641 15.2164 1.97946 15.251C1.99184 15.279 2.00096 15.2843 2.00501 15.2866C2.44469 15.5451 3.70953 16.0513 6.80228 16.0513C9.89503 16.0513 11.1595 15.5453 11.5992 15.2869C11.6032 15.2845 11.6127 15.279 11.6251 15.251C11.6405 15.2164 11.6558 15.1551 11.6558 15.0664C11.6558 13.2838 10.2107 11.8388 8.4282 11.8388H5.17635ZM0.666748 15.0664C0.666748 12.5758 2.68577 10.5568 5.17635 10.5568H8.4282C10.9188 10.5568 12.9378 12.5758 12.9378 15.0664C12.9378 15.4954 12.7928 16.0724 12.2488 16.3922C11.5318 16.8136 10.0075 17.3333 6.80228 17.3333C3.59707 17.3333 2.07276 16.8136 1.35577 16.3922C0.811728 16.0724 0.666748 15.4954 0.666748 15.0664Z" fill="#969BAB"/>
<path fill-rule="evenodd" clip-rule="evenodd" d="M11.9527 2.23933C12.0451 1.89757 12.397 1.69539 12.7388 1.78776C14.1528 2.16992 15.1356 3.56623 15.1356 5.15384C15.1356 6.83135 13.9858 8.34383 12.3732 8.53754C12.0217 8.57976 11.7026 8.32904 11.6603 7.97754C11.6181 7.62604 11.8688 7.30686 12.2203 7.26464C13.0803 7.16134 13.8536 6.29783 13.8536 5.15384C13.8536 4.06843 13.1881 3.23724 12.4043 3.02541C12.0625 2.93304 11.8603 2.5811 11.9527 2.23933Z" fill="#969BAB"/>
<path fill-rule="evenodd" clip-rule="evenodd" d="M13.8654 11.0751C13.9332 10.7276 14.2698 10.5009 14.6173 10.5686C16.1948 10.8763 17.3334 12.2583 17.3334 13.8656V14.3112C17.3334 14.7057 17.215 15.2676 16.7004 15.5966C16.3539 15.8181 15.8166 16.0541 14.988 16.2217C14.641 16.2919 14.3028 16.0675 14.2326 15.7205C14.1624 15.3735 14.3868 15.0353 14.7338 14.9651C15.4406 14.8221 15.8227 14.6361 16.0099 14.5164L16.0114 14.5149C16.0128 14.5132 16.0178 14.5064 16.024 14.4913C16.0377 14.4581 16.0514 14.3987 16.0514 14.3112V13.8656C16.0514 12.8718 15.3473 12.0172 14.3719 11.827C14.0244 11.7592 13.7976 11.4226 13.8654 11.0751Z" fill="#969BAB"/>
</svg>
